<?xml version="1.0" standalone="no"?>
<!DOCTYPE svg PUBLIC "-//W3C//DTD SVG 20010904//EN"
 "http://www.w3.org/TR/2001/REC-SVG-20010904/DTD/svg10.dtd">
<svg version="1.0" xmlns="http://www.w3.org/2000/svg"
 width="200.000000pt" height="200.000000pt" viewBox="0 0 200.000000 200.000000"
 preserveAspectRatio="xMidYMid meet">

<g transform="translate(0.000000,200.000000) scale(0.100000,-0.100000)"
fill="#000000" stroke="none">
<path d="M501 1549 l-183 -181 46 -47 46 -46 135 135 135 135 160 -160 160
-160 160 160 160 160 135 -135 135 -135 47 48 48 47 -183 182 -182 183 -160
-160 -160 -160 -158 158 -158 158 -183 -182z"/>
<path d="M501 1079 l-182 -183 45 -45 46 -46 135 135 135 135 160 -160 160
-160 160 160 160 160 135 -135 135 -135 47 48 48 47 -183 182 -182 183 -160
-160 -160 -160 -159 159 -158 158 -182 -183z"/>
<path d="M501 609 l-183 -182 46 -46 46 -46 135 135 135 135 160 -160 160
-160 160 160 160 160 135 -135 135 -135 47 48 48 47 -183 182 -182 183 -160
-160 -160 -160 -159 159 -158 158 -182 -183z"/>
</g>
</svg>
