<?xml version="1.0" standalone="no"?>
<!DOCTYPE svg PUBLIC "-//W3C//DTD SVG 20010904//EN"
 "http://www.w3.org/TR/2001/REC-SVG-20010904/DTD/svg10.dtd">
<svg version="1.0" xmlns="http://www.w3.org/2000/svg"
 width="900.000000pt" height="900.000000pt" viewBox="0 0 900.000000 900.000000"
 preserveAspectRatio="xMidYMid meet">

<g transform="translate(0.000000,900.000000) scale(0.100000,-0.100000)"
fill="#000000" stroke="none">
<path d="M0 4500 l0 -4500 4500 0 4500 0 0 4500 0 4500 -4500 0 -4500 0 0
-4500z m4537 2918 c12 -13 73 -90 137 -173 88 -114 116 -157 116 -180 0 -23
-23 -60 -96 -153 -52 -67 -92 -127 -89 -132 3 -6 15 -10 26 -10 10 0 27 -4 37
-8 9 -5 44 -22 77 -38 74 -35 179 -139 218 -215 43 -85 57 -146 57 -250 0
-166 -66 -303 -195 -407 -39 -32 -43 -38 -29 -47 10 -5 47 -32 83 -59 74 -55
118 -76 157 -76 15 0 70 14 123 31 252 81 356 114 476 150 140 43 189 57 370
108 179 50 431 102 612 126 146 19 402 18 518 -1 391 -68 679 -317 766 -666
29 -115 29 -333 0 -468 -68 -309 -194 -588 -487 -1072 -231 -381 -339 -672
-372 -998 l-7 -75 -2535 0 -2535 0 -8 80 c-15 157 -78 417 -117 487 -6 10 -10
22 -10 27 0 33 -140 308 -247 484 -47 78 -95 158 -106 177 -11 19 -39 69 -62
110 -252 445 -363 817 -335 1120 16 164 59 285 144 405 155 216 366 342 656
390 121 21 426 16 575 -9 180 -30 390 -75 540 -117 181 -51 230 -65 370 -108
119 -36 208 -64 475 -150 52 -17 108 -31 123 -31 41 0 88 22 160 77 35 26 72
53 81 58 14 9 11 14 -26 44 -131 104 -198 245 -198 415 0 149 46 260 151 367
66 67 189 139 237 139 11 0 24 4 27 10 3 5 -37 65 -89 132 -57 73 -96 132 -96
146 0 33 12 52 123 197 156 202 163 207 204 163z m2501 -5175 l2 -213 -2540 0
-2540 0 0 208 c0 115 3 212 7 215 3 4 1145 6 2537 5 l2531 -3 3 -212z"/>
<path d="M1981 5780 c-202 -29 -374 -133 -470 -284 -58 -92 -82 -173 -88 -292
-15 -292 116 -608 540 -1294 67 -108 222 -335 249 -365 7 -8 40 -45 73 -82
168 -192 341 -293 499 -293 120 0 218 74 250 189 19 68 20 106 4 169 -10 42
-32 68 -209 247 -109 110 -202 213 -208 228 -13 33 -5 53 123 322 130 271 129
270 151 273 15 2 96 -73 303 -281 253 -254 282 -286 282 -315 0 -29 -21 -89
-65 -187 -59 -130 -95 -223 -95 -246 0 -25 12 -61 47 -139 28 -63 102 -157
150 -193 68 -49 139 -71 216 -65 177 15 318 176 393 450 27 98 28 114 29 318
0 227 -4 263 -56 470 -37 152 -89 301 -152 440 -60 132 -97 272 -97 366 0 69
11 58 -125 119 -33 15 -73 32 -90 40 -306 136 -734 289 -950 339 -38 9 -88 21
-110 26 -158 39 -459 59 -594 40z"/>
<path d="M6695 5784 c-65 -7 -238 -34 -270 -44 -16 -4 -64 -16 -105 -25 -212
-48 -644 -202 -955 -340 -16 -8 -57 -25 -90 -40 -136 -60 -125 -50 -125 -116
0 -102 -28 -204 -113 -406 -62 -147 -97 -248 -131 -377 -52 -198 -60 -259 -60
-491 0 -243 9 -303 74 -459 122 -293 357 -397 562 -249 87 63 198 250 198 334
0 22 -37 116 -95 244 -44 98 -65 158 -65 187 0 29 29 61 283 315 206 208 287
283 302 281 20 -3 49 -55 135 -240 18 -40 55 -116 80 -168 64 -132 71 -155 59
-188 -6 -15 -99 -117 -208 -227 -188 -190 -199 -203 -211 -254 -22 -94 1 -196
60 -263 106 -121 291 -117 483 12 194 131 378 369 684 890 203 345 305 562
365 775 33 117 33 331 0 428 -66 198 -233 346 -452 401 -64 17 -318 29 -405
20z"/>
</g>
</svg>
