<?xml version="1.0" standalone="no"?>
<!DOCTYPE svg PUBLIC "-//W3C//DTD SVG 20010904//EN"
 "http://www.w3.org/TR/2001/REC-SVG-20010904/DTD/svg10.dtd">
<svg version="1.0" xmlns="http://www.w3.org/2000/svg"
 width="593.000000pt" height="529.000000pt" viewBox="0 0 593.000000 529.000000"
 preserveAspectRatio="xMidYMid meet">

<g transform="translate(0.000000,529.000000) scale(0.100000,-0.100000)"
fill="#000000" stroke="none">
<path d="M2910 4800 c-720 -49 -1304 -565 -1451 -1285 -33 -157 -33 -422 -1
-580 111 -551 473 -988 982 -1186 845 -328 1802 123 2080 981 56 176 74 294
74 495 0 206 -20 334 -81 509 -204 587 -749 1016 -1348 1061 -44 3 -96 7 -115
9 -19 1 -82 -1 -140 -4z m255 -70 c516 -49 972 -366 1210 -840 62 -124 111
-277 136 -424 17 -99 20 -150 16 -281 -5 -180 -22 -288 -67 -426 -77 -235
-194 -424 -375 -604 -220 -220 -464 -353 -776 -422 -120 -26 -457 -26 -579 0
-321 70 -563 198 -781 416 -120 121 -200 226 -268 352 -370 689 -160 1543 486
1977 296 199 640 286 998 252z"/>
<path d="M2795 4615 c-276 -45 -522 -165 -693 -337 -140 -142 -215 -269 -278
-475 -32 -103 -37 -135 -41 -249 -7 -158 4 -200 78 -301 70 -96 77 -158 22
-209 -20 -18 -37 -24 -73 -24 -65 0 -107 31 -145 105 -30 60 -30 60 -30 235
l0 175 -13 -80 c-18 -104 -20 -348 -3 -450 57 -363 232 -654 500 -833 158
-106 375 -179 561 -189 135 -7 199 10 290 77 36 26 75 52 87 59 50 26 122 2
148 -49 47 -91 -18 -181 -160 -221 -68 -19 -239 -16 -343 5 -46 10 -86 16 -88
13 -7 -7 146 -37 237 -47 122 -13 331 -4 448 20 254 51 451 152 622 317 140
135 225 280 290 498 32 103 34 119 34 260 0 145 -1 152 -28 200 -15 28 -44 71
-63 98 -62 82 -53 169 20 204 71 33 145 -7 193 -105 27 -54 28 -63 28 -202 0
-80 -4 -167 -8 -195 -5 -27 -7 -48 -4 -45 18 17 40 210 41 340 0 369 -122 694
-346 919 -125 126 -244 201 -412 260 -256 90 -460 94 -581 12 -22 -15 -58 -40
-79 -54 -65 -45 -157 -31 -184 28 -35 76 7 153 109 201 62 28 69 29 217 29
202 0 141 14 -88 20 -125 3 -201 0 -265 -10z m50 -545 c64 -24 92 -97 75 -192
-28 -152 -167 -336 -307 -406 -57 -28 -63 -40 -35 -64 29 -26 51 -28 95 -11
79 31 121 74 151 156 44 120 120 187 181 159 50 -23 34 -102 -41 -201 -45 -60
-55 -81 -60 -127 -4 -30 -4 -54 -1 -54 7 0 169 101 262 163 l69 47 -2 82 c-5
148 44 275 143 374 66 67 104 84 186 84 56 0 106 -30 132 -80 25 -49 17 -134
-19 -207 -32 -63 -124 -167 -208 -233 -31 -25 -56 -50 -56 -56 0 -6 9 -23 20
-37 20 -25 23 -26 104 -20 129 9 190 -22 173 -89 -11 -42 -43 -53 -162 -54
-116 -1 -134 -6 -204 -58 -55 -41 -109 -122 -132 -198 -30 -98 -24 -239 13
-319 75 -164 235 -233 376 -163 95 47 145 132 144 246 -1 84 -29 151 -76 179
-66 40 -159 11 -171 -55 -9 -43 -2 -65 35 -111 58 -73 21 -134 -68 -114 -78
17 -127 104 -120 212 5 76 35 130 100 177 55 40 109 53 191 47 111 -10 182
-62 236 -177 23 -48 26 -68 26 -160 0 -97 -2 -110 -32 -173 -120 -252 -449
-323 -676 -145 -67 54 -132 164 -157 268 -17 71 -15 199 5 274 33 125 132 258
239 321 39 23 44 30 36 45 -6 11 -14 21 -18 24 -5 3 -44 -20 -88 -50 -43 -30
-130 -85 -192 -121 -62 -37 -115 -71 -118 -75 -3 -5 -10 -60 -15 -121 -26
-296 -122 -498 -291 -608 -95 -61 -230 -73 -319 -28 -43 21 -96 79 -115 125
-22 52 -18 166 8 227 67 161 192 267 515 437 73 39 82 46 85 75 l4 32 -40 -20
c-42 -22 -137 -34 -181 -23 -37 9 -112 82 -125 120 -9 27 -18 34 -58 45 -129
33 -202 178 -162 323 13 45 52 93 81 101 33 9 60 -25 51 -65 -4 -18 -7 -68 -7
-111 0 -74 2 -80 29 -103 15 -14 33 -23 40 -21 6 2 14 30 17 63 14 145 96 304
202 392 27 22 63 44 80 50 43 13 119 14 152 2z"/>
<path d="M2705 3929 c-71 -62 -160 -251 -153 -323 l3 -31 85 85 c119 119 183
246 145 284 -24 23 -40 20 -80 -15z"/>
<path d="M3509 3943 c-57 -35 -129 -182 -129 -262 l0 -36 60 62 c104 108 157
206 130 238 -16 19 -28 19 -61 -2z"/>
<path d="M2656 3055 c-224 -127 -366 -287 -366 -410 0 -118 141 -144 251 -46
58 51 101 126 140 241 26 79 63 249 55 257 -1 2 -37 -17 -80 -42z"/>
<path d="M3318 4593 c7 -3 16 -2 19 1 4 3 -2 6 -13 5 -11 0 -14 -3 -6 -6z"/>
<path d="M3358 4583 c7 -3 16 -2 19 1 4 3 -2 6 -13 5 -11 0 -14 -3 -6 -6z"/>
<path d="M3398 4573 c7 -3 16 -2 19 1 4 3 -2 6 -13 5 -11 0 -14 -3 -6 -6z"/>
<path d="M1641 3554 c0 -11 3 -14 6 -6 3 7 2 16 -1 19 -3 4 -6 -2 -5 -13z"/>
<path d="M4371 2844 c0 -11 3 -14 6 -6 3 7 2 16 -1 19 -3 4 -6 -2 -5 -13z"/>
<path d="M4361 2813 c-1 -6 -4 -20 -7 -30 -5 -17 -5 -17 6 0 6 10 9 23 6 30
-3 9 -5 9 -5 0z"/>
<path d="M3010 1037 c0 -7 16 -21 35 -30 l35 -17 -2 -187 -3 -188 -32 -14
c-18 -8 -33 -21 -33 -28 0 -10 26 -13 110 -13 87 0 110 3 110 14 0 7 -13 19
-30 26 l-30 12 0 219 0 219 -80 0 c-59 0 -80 -3 -80 -13z"/>
<path d="M3580 1038 c0 -7 14 -21 30 -30 l30 -17 0 -191 0 -191 -30 -10 c-16
-6 -30 -17 -30 -25 0 -11 20 -14 95 -14 77 0 95 3 95 15 0 8 -9 19 -20 25 -18
10 -20 21 -20 119 0 122 4 131 64 133 57 2 69 -17 74 -116 5 -101 -1 -132 -28
-141 -11 -3 -20 -13 -20 -21 0 -11 19 -14 95 -14 73 0 95 3 95 13 0 8 -11 19
-25 25 -25 11 -25 14 -25 127 0 141 -11 169 -71 185 -51 14 -91 6 -129 -27
l-30 -25 0 96 0 96 -75 0 c-53 0 -75 -4 -75 -12z"/>
<path d="M545 1021 c-113 -30 -176 -115 -176 -238 0 -186 146 -268 379 -211
l42 10 0 69 c0 62 2 70 25 85 14 9 25 23 25 30 0 11 -24 14 -115 14 -94 0
-115 -3 -115 -15 0 -8 17 -19 40 -26 l40 -12 0 -53 c0 -53 0 -53 -39 -65 -83
-25 -152 30 -172 137 -21 114 25 214 104 229 18 4 57 0 87 -7 51 -13 56 -17
64 -51 8 -29 14 -37 33 -37 22 0 23 4 23 64 l0 63 -37 6 c-74 12 -178 16 -208
8z"/>
<path d="M900 1004 c0 -8 14 -20 30 -25 l30 -11 0 -178 0 -178 -30 -11 c-16
-5 -30 -17 -30 -25 0 -14 27 -16 210 -16 l210 0 0 66 c0 61 -1 65 -21 62 -14
-2 -25 -15 -33 -38 l-11 -35 -95 0 -95 0 0 80 0 80 46 3 c44 3 47 1 57 -27 6
-17 18 -31 26 -31 13 0 16 15 16 85 0 66 -3 85 -14 85 -8 0 -19 -13 -25 -30
-9 -28 -13 -30 -61 -30 l-51 0 3 68 3 67 85 0 84 0 10 -33 c7 -25 14 -32 30
-30 18 3 21 10 23 61 l1 57 -199 0 c-173 0 -199 -2 -199 -16z"/>
<path d="M1610 1006 c0 -7 14 -19 30 -26 l30 -12 0 -178 0 -178 -30 -11 c-16
-5 -30 -17 -30 -25 0 -14 17 -16 110 -16 90 0 110 3 110 15 0 8 -14 22 -30 30
-31 16 -31 16 -28 93 l3 77 95 0 95 0 3 -77 3 -78 -36 -17 c-66 -32 -46 -43
80 -43 91 0 115 3 115 14 0 7 -13 19 -30 26 l-30 12 0 178 0 178 30 12 c17 7
30 19 30 26 0 11 -24 14 -115 14 -89 0 -115 -3 -115 -13 0 -7 15 -20 33 -28
31 -14 32 -16 35 -81 l3 -68 -101 0 -101 0 3 67 c3 63 5 69 31 81 15 7 27 20
27 28 0 11 -21 14 -110 14 -87 0 -110 -3 -110 -14z"/>
<path d="M3375 1000 c-30 -4 -41 -10 -43 -25 -8 -53 -13 -63 -37 -69 -35 -9
-35 -46 0 -46 l25 0 0 -125 c0 -118 1 -127 23 -149 33 -33 87 -40 153 -21 68
20 75 45 11 45 -23 0 -53 7 -65 16 -20 14 -22 23 -22 125 l0 109 60 0 c57 0
60 1 60 25 0 24 -3 25 -59 25 l-60 0 -3 48 -3 47 -40 -5z"/>
<path d="M2313 909 c-84 -24 -138 -134 -113 -228 31 -117 157 -160 288 -99 32
15 42 26 42 44 0 23 0 23 -37 7 -79 -33 -166 -13 -191 43 -25 53 -22 54 108
54 l120 0 0 50 c0 102 -102 162 -217 129z m100 -57 c9 -8 17 -28 17 -44 l0
-28 -71 0 -71 0 7 28 c8 35 31 60 59 64 24 5 34 1 59 -20z"/>
<path d="M2715 914 c-11 -3 -37 -10 -57 -15 -36 -9 -38 -12 -38 -49 0 -22 4
-40 9 -40 5 0 32 14 60 31 81 50 131 37 131 -36 l0 -30 -57 0 c-100 -1 -163
-51 -163 -128 0 -91 112 -126 190 -60 17 14 32 24 33 22 1 -2 7 -13 13 -23 15
-29 56 -39 103 -26 31 8 41 16 41 31 0 15 -5 19 -15 15 -38 -14 -45 3 -45 103
0 113 -12 166 -44 186 -23 16 -127 28 -161 19z m105 -229 c0 -34 -5 -47 -22
-59 -27 -19 -69 -21 -86 -4 -17 17 -15 73 4 88 16 14 83 29 97 23 4 -2 7 -24
7 -48z"/>
<path d="M4199 907 c-90 -34 -133 -94 -132 -184 3 -106 63 -168 162 -167 74 0
141 33 141 69 0 25 0 25 -32 9 -108 -56 -196 28 -168 162 17 80 52 89 140 35
19 -11 38 -21 43 -21 4 0 7 18 7 40 0 29 -5 42 -20 50 -33 18 -103 21 -141 7z"/>
<path d="M4540 913 c-14 -2 -40 -9 -57 -14 -30 -10 -33 -14 -33 -50 0 -21 4
-39 10 -39 5 0 31 14 57 30 80 51 133 37 133 -37 0 -28 -1 -28 -57 -28 -100
-1 -163 -51 -163 -128 0 -91 112 -126 190 -60 17 14 32 24 33 22 1 -2 7 -13
13 -23 15 -29 56 -39 103 -26 31 8 41 16 41 31 0 15 -5 19 -15 15 -38 -14 -45
2 -45 113 0 128 -15 169 -70 188 -35 12 -91 14 -140 6z m108 -225 c3 -39 -1
-49 -20 -62 -27 -19 -69 -21 -86 -4 -17 17 -15 73 3 88 16 13 73 29 90 26 6
-2 11 -23 13 -48z"/>
<path d="M4918 913 c-73 -4 -89 -20 -43 -41 25 -11 25 -13 25 -137 0 -124 0
-126 -25 -137 -14 -6 -25 -17 -25 -25 0 -10 25 -13 110 -13 117 0 137 10 75
36 l-35 14 0 99 c0 82 3 101 18 114 25 23 49 21 64 -3 9 -14 24 -20 50 -20
l38 0 0 50 c0 40 -4 51 -21 61 -34 18 -84 2 -118 -37 -32 -36 -36 -33 -31 24
1 12 -2 21 -7 20 -4 -1 -38 -3 -75 -5z"/>
<path d="M5333 909 c-84 -24 -138 -134 -113 -228 31 -117 157 -160 286 -100
34 16 44 27 44 45 0 23 -1 23 -36 8 -48 -20 -126 -20 -156 0 -25 17 -48 55
-48 81 0 12 22 15 120 15 l120 0 0 50 c0 102 -102 162 -217 129z m100 -57 c9
-8 17 -28 17 -44 l0 -28 -71 0 -71 0 7 27 c16 66 69 86 118 45z"/>
</g>
</svg>
