<?xml version="1.0" standalone="no"?>
<!DOCTYPE svg PUBLIC "-//W3C//DTD SVG 20010904//EN"
 "http://www.w3.org/TR/2001/REC-SVG-20010904/DTD/svg10.dtd">
<svg version="1.0" xmlns="http://www.w3.org/2000/svg"
 width="640.000000pt" height="554.000000pt" viewBox="0 0 640.000000 554.000000"
 preserveAspectRatio="xMidYMid meet">

<g transform="translate(0.000000,554.000000) scale(0.100000,-0.100000)"
fill="#000000" stroke="none">
<path d="M1256 5463 c-3 -42 -6 -379 -6 -749 0 -734 1 -757 61 -1038 115 -548
334 -1018 665 -1431 49 -60 163 -186 254 -279 279 -284 521 -475 872 -685 l87
-52 43 22 c68 35 245 146 338 212 597 426 1050 959 1290 1521 106 247 191 540
247 846 26 143 27 151 31 705 2 308 1 660 -3 783 l-7 222 -1933 0 -1932 0 -7
-77z m3012 -235 c3 -22 9 -28 28 -28 46 0 42 -61 -5 -68 -29 -5 -27 -35 4 -76
28 -37 32 -74 10 -115 -13 -26 -13 -30 1 -42 13 -10 38 -6 147 26 219 64 308
51 358 -51 34 -71 24 -127 -55 -292 -45 -93 -66 -150 -66 -175 l0 -37 -454 0
-453 0 -6 44 c-4 24 -36 108 -73 185 -63 136 -66 145 -62 204 10 160 118 196
366 123 136 -40 143 -41 159 -25 7 7 5 21 -8 47 -25 47 -24 51 11 103 38 56
38 77 3 81 -24 3 -28 8 -28 33 0 25 4 30 28 33 23 3 27 8 27 33 0 28 2 30 33
27 27 -2 33 -8 35 -30z m-2150 -10 c3 -24 8 -28 33 -28 28 0 30 -2 27 -32 -2
-28 -8 -34 -30 -36 -36 -4 -36 -25 2 -81 34 -50 36 -64 15 -105 -19 -36 -13
-56 15 -56 12 0 75 16 141 35 227 66 322 41 358 -91 15 -55 -3 -121 -73 -263
-30 -61 -58 -132 -62 -156 l-6 -45 -454 0 -454 0 0 37 c0 25 -21 82 -66 175
-79 166 -88 218 -52 288 52 101 140 115 344 55 65 -19 129 -35 141 -35 30 0
38 17 19 45 -24 37 -19 76 15 123 34 47 33 72 -6 72 -22 0 -25 4 -25 35 0 31
3 35 25 35 20 0 25 5 25 23 0 31 9 39 40 35 19 -2 26 -10 28 -30z m1865 -1496
l789 -789 -31 -61 c-78 -155 -253 -432 -328 -520 l-28 -33 -585 586 c-321 322
-589 585 -595 585 -5 0 -277 -267 -603 -592 l-593 -593 -19 25 c-110 140 -227
323 -316 494 l-63 121 782 783 c430 430 786 782 792 782 6 0 365 -355 798
-788z m707 548 l0 -40 -460 0 -460 0 0 40 0 40 460 0 460 0 0 -40z m-2140 -10
l0 -40 -460 0 -460 0 0 40 0 40 460 0 460 0 0 -40z m707 -1330 c4 -23 11 -30
30 -30 45 0 41 -61 -6 -68 -28 -4 -27 -32 4 -78 29 -42 32 -84 9 -119 -18 -28
-12 -45 18 -45 12 0 75 16 141 36 128 38 223 47 267 24 73 -37 107 -105 95
-189 -4 -25 -35 -107 -71 -181 -35 -75 -64 -145 -64 -157 0 -56 26 -53 -460
-53 l-447 0 -7 43 c-4 23 -35 101 -69 172 -54 114 -62 138 -65 200 -3 60 0 75
20 104 57 85 147 95 342 37 164 -49 183 -47 151 20 -20 42 -14 71 21 113 32
38 28 65 -9 69 -24 3 -27 8 -27 38 0 31 2 34 31 34 20 0 29 4 26 13 -8 22 13
47 39 47 19 0 26 -6 31 -30z m433 -960 l0 -40 -465 0 -465 0 0 40 0 40 465 0
465 0 0 -40z"/>
<path d="M3768 4874 c-80 -43 -61 -157 58 -336 49 -73 67 -88 108 -88 23 0 26
4 26 35 0 31 -3 35 -26 35 -36 0 -64 17 -64 39 0 19 18 31 49 31 12 0 17 8 16
28 0 21 5 28 23 30 18 3 26 -3 34 -26 9 -23 20 -32 44 -37 52 -9 64 -65 14
-65 -39 0 -39 -21 1 -54 34 -29 46 -31 70 -13 55 42 63 140 22 267 -15 47 -28
87 -30 89 -1 2 -53 21 -115 42 -121 42 -185 48 -230 23z"/>
<path d="M4563 4883 c-11 -2 -63 -19 -114 -37 l-93 -33 -29 -84 c-35 -99 -40
-186 -14 -236 31 -60 78 -66 117 -16 28 36 25 43 -14 43 -32 0 -34 1 -27 28 6
20 16 29 44 36 25 6 37 15 37 27 0 22 25 42 47 37 13 -3 17 -11 15 -31 -3 -25
0 -27 33 -27 28 0 35 -4 35 -19 0 -28 -27 -51 -61 -51 -27 0 -29 -3 -29 -35 0
-32 3 -35 29 -35 83 0 245 309 203 387 -22 41 -101 61 -179 46z"/>
<path d="M1633 4866 c-78 -36 -80 -105 -7 -246 59 -115 115 -180 155 -180 26
0 29 3 29 35 0 33 -2 35 -35 35 -24 0 -37 6 -45 19 -17 33 -12 41 26 41 35 0
36 1 31 30 -6 28 -5 30 24 30 24 0 32 -6 40 -30 9 -24 17 -30 40 -30 22 0 32
-6 39 -26 14 -35 14 -34 -20 -34 -23 0 -30 -5 -30 -19 0 -23 45 -61 70 -61 28
0 68 55 75 104 8 52 3 84 -32 188 l-25 76 -102 37 c-117 43 -187 52 -233 31z"/>
<path d="M2345 4846 c-55 -18 -109 -37 -119 -43 -26 -14 -75 -165 -76 -231 0
-33 7 -67 20 -91 29 -57 61 -66 104 -26 36 33 34 55 -4 55 -32 0 -36 9 -20 41
6 11 21 19 36 19 19 0 29 7 37 30 9 24 17 30 40 30 27 0 29 -2 24 -30 -6 -29
-5 -30 28 -30 28 0 35 -4 35 -19 0 -24 -18 -38 -55 -43 -25 -2 -30 -8 -33 -34
-6 -60 53 -52 107 13 17 21 54 81 81 135 71 137 69 213 -5 244 -50 21 -89 17
-200 -20z"/>
<path d="M2750 2568 c-32 -22 -35 -28 -38 -80 -3 -49 2 -67 34 -130 46 -92
109 -184 134 -198 10 -5 30 -10 44 -10 23 0 26 4 26 35 0 32 -2 35 -29 35 -45
0 -61 10 -61 36 0 17 6 24 19 24 39 0 50 10 41 35 -7 19 -5 24 8 27 32 7 51
-4 57 -33 5 -24 12 -29 35 -29 31 0 55 -23 46 -45 -3 -8 -17 -15 -31 -15 -29
0 -33 -19 -7 -48 30 -36 63 -37 97 -2 44 46 47 131 9 242 -15 46 -32 88 -38
94 -20 21 -189 75 -251 81 -52 4 -65 2 -95 -19z"/>
<path d="M3475 2556 c-55 -18 -107 -37 -116 -40 -20 -9 -67 -143 -75 -213 -8
-62 22 -137 61 -155 22 -10 30 -8 53 9 15 11 28 30 30 42 3 17 -2 21 -23 21
-23 0 -26 4 -23 28 2 22 8 28 35 30 26 3 34 9 43 38 10 30 16 35 34 30 11 -3
24 -6 28 -6 4 0 5 -13 2 -30 -6 -29 -5 -30 30 -30 34 0 37 -2 30 -22 -9 -30
-8 -29 -45 -37 -59 -12 -67 -71 -10 -71 22 0 39 11 69 45 51 58 131 217 138
276 6 41 3 50 -23 79 -44 49 -107 51 -238 6z"/>
<path d="M893 3136 c-57 -19 -200 -97 -303 -166 -164 -110 -228 -138 -403
-175 -51 -11 -87 -25 -107 -42 -62 -52 -93 -157 -71 -240 13 -49 95 -144 140
-162 27 -12 33 -9 124 62 115 90 200 140 225 133 20 -7 122 -101 122 -113 0
-5 -52 -34 -115 -66 l-115 -57 25 -67 c87 -231 218 -488 350 -688 310 -470
749 -835 1250 -1038 132 -54 387 -131 621 -187 94 -23 176 -45 183 -49 9 -6 9
-15 1 -35 -16 -43 -12 -91 11 -120 27 -35 169 -102 243 -115 142 -26 291 -6
406 55 94 49 114 75 105 134 -3 25 -7 54 -8 64 -2 17 28 27 248 82 483 123
720 219 1009 408 156 101 290 213 438 362 240 242 406 478 570 809 68 137 158
351 158 377 0 10 -42 35 -115 69 -63 30 -115 57 -115 61 0 12 127 118 141 118
20 0 157 -89 238 -155 38 -30 73 -55 79 -55 22 0 112 82 138 126 40 68 39 149
-1 222 -16 30 -41 62 -56 73 -15 11 -78 31 -140 44 -138 31 -182 51 -346 155
-318 205 -406 226 -568 135 -124 -69 -297 -241 -359 -355 -39 -72 -59 -159
-47 -210 14 -64 43 -87 149 -115 97 -26 190 -68 259 -118 l43 -30 -32 -56
c-17 -31 -68 -112 -113 -181 -287 -441 -656 -758 -1064 -915 -51 -20 -224 -70
-383 -111 -159 -40 -309 -82 -333 -93 -70 -31 -72 -76 -8 -153 l35 -42 -26
-23 c-64 -55 -215 -67 -311 -24 -67 30 -69 38 -24 105 45 67 46 74 19 109 -25
31 -55 41 -356 116 -288 72 -378 103 -549 186 -386 188 -698 492 -987 960
l-68 110 37 33 c49 44 176 103 280 132 113 31 128 48 128 149 0 69 -4 85 -37
152 -69 138 -247 317 -384 385 -83 41 -164 52 -231 30z m177 -39 c75 -31 140
-77 233 -166 148 -142 217 -258 217 -367 0 -77 -27 -104 -105 -104 -74 0 -151
27 -327 116 -81 41 -158 74 -170 74 -37 -1 -68 -24 -122 -90 -28 -35 -68 -77
-88 -93 l-37 -30 -68 63 c-37 35 -69 67 -71 70 -2 4 41 24 95 45 272 104 386
225 308 328 -13 18 -18 15 -92 -42 -99 -77 -113 -78 -113 -11 0 64 26 117 81
164 79 67 166 81 259 43z m4463 -7 c50 -26 103 -74 123 -112 14 -27 20 -129 8
-141 -6 -6 -87 46 -144 92 -36 29 -49 26 -66 -15 -22 -53 -10 -90 51 -149 56
-55 152 -106 287 -155 l87 -32 -72 -69 c-40 -38 -75 -69 -78 -69 -15 0 -64 48
-117 114 -31 39 -63 76 -72 83 -34 27 -81 14 -254 -71 -175 -86 -233 -106
-308 -106 -56 0 -85 21 -98 70 -14 50 1 117 42 190 41 74 55 91 156 193 88 89
183 160 257 191 52 21 141 15 198 -14z m-4819 -124 c-19 -56 -14 -132 12 -171
9 -14 33 -34 53 -44 l35 -19 -60 -30 c-33 -17 -107 -49 -165 -72 -136 -54
-204 -92 -323 -184 l-98 -76 -28 20 c-67 47 -110 122 -110 187 0 50 41 137 75
159 15 9 72 27 128 40 150 33 202 56 353 155 75 49 139 88 140 86 2 -2 -3 -25
-12 -51z m5110 -43 c143 -92 198 -116 336 -145 109 -23 130 -34 169 -89 60
-83 50 -170 -31 -255 -28 -30 -57 -54 -66 -54 -8 0 -42 22 -77 50 -104 83
-231 157 -343 201 -59 23 -134 55 -167 71 l-59 30 33 17 c19 9 43 28 54 43 28
38 34 131 13 182 -9 21 -16 40 -16 43 0 5 -4 7 154 -94z m-4894 -45 c0 -22
-11 -41 -39 -69 -42 -43 -82 -51 -117 -24 -19 15 -19 16 4 33 110 83 136 101
143 96 5 -3 9 -19 9 -36z m4647 -24 c73 -52 73 -53 51 -68 -35 -24 -73 -20
-111 14 -34 30 -52 76 -41 105 7 17 4 19 101 -51z m-4677 -247 c0 -7 33 -80
73 -162 191 -389 377 -656 628 -900 166 -162 298 -261 480 -359 171 -92 313
-140 699 -236 176 -43 249 -69 260 -90 14 -25 14 -23 -24 -69 -40 -47 -48 -68
-117 -299 -46 -151 -55 -172 -73 -172 -42 0 -509 122 -653 171 -163 55 -419
176 -556 262 -429 272 -778 669 -1027 1170 -65 130 -160 350 -160 371 0 2 66
37 147 76 162 78 171 84 250 183 52 65 73 81 73 54z m4630 0 c8 -7 31 -32 49
-57 73 -95 94 -111 240 -181 80 -38 146 -71 148 -73 4 -4 -76 -200 -125 -307
-152 -325 -374 -641 -623 -885 -148 -144 -243 -221 -404 -326 -208 -137 -444
-246 -700 -323 -143 -43 -511 -135 -542 -135 -24 0 -21 -8 -120 320 -20 64
-41 111 -67 144 -20 27 -36 56 -34 65 5 28 67 49 344 120 311 80 407 112 559
186 365 179 708 505 961 912 80 128 202 355 250 466 21 48 41 87 44 87 3 0 12
-6 20 -13z m-2507 -1952 c12 -8 51 -22 87 -31 83 -21 173 -13 247 23 29 14 55
24 56 22 8 -9 140 -446 144 -475 4 -25 -1 -36 -33 -64 -72 -63 -191 -100 -321
-100 -102 0 -171 14 -249 51 -75 35 -114 70 -114 102 0 14 24 103 54 198 30
96 62 200 71 232 18 61 23 65 58 42z"/>
<path d="M916 2095 c-6 -18 -125 -77 -138 -69 -11 7 -10 0 3 -29 l11 -24 56
34 c32 19 69 37 84 40 27 5 27 6 12 34 -17 33 -20 35 -28 14z"/>
<path d="M962 2000 c-15 -24 -80 -67 -116 -76 -22 -5 -24 -9 -15 -26 11 -20
11 -20 37 5 32 29 71 51 79 43 3 -3 -4 -42 -17 -86 -12 -45 -19 -84 -16 -87 2
-3 38 13 79 36 41 22 77 38 80 34 13 -12 7 13 -7 32 -13 18 -14 18 -25 -3 -12
-22 -69 -58 -78 -49 -2 3 5 39 17 81 16 58 18 80 10 96 -13 24 -12 24 -28 0z"/>
<path d="M1122 1719 c-13 -16 -43 -41 -68 -55 -24 -14 -44 -28 -44 -31 0 -9
71 -103 78 -103 4 0 14 5 22 10 13 8 12 10 -2 10 -19 0 -58 34 -58 50 0 14
104 90 124 90 16 0 16 2 -1 30 -9 17 -20 30 -23 29 -3 0 -15 -13 -28 -30z"/>
<path d="M1210 1635 c0 -8 -17 -48 -37 -89 -20 -42 -34 -78 -31 -81 3 -3 41 3
84 15 95 25 110 25 119 3 5 -13 -7 -31 -45 -65 -28 -27 -59 -48 -67 -48 -14 0
-14 -3 2 -20 18 -20 18 -20 29 1 6 12 26 33 43 47 l33 24 -15 -48 c-32 -103
-34 -96 21 -79 27 8 60 18 74 22 l25 6 -25 -28 c-14 -15 -37 -35 -53 -45 -27
-17 -27 -17 -8 -35 19 -17 22 -15 77 44 31 34 63 61 72 61 15 0 14 2 -1 17
-16 16 -21 16 -83 0 -36 -10 -69 -16 -72 -13 -2 3 5 33 17 66 l22 61 -32 40
c-17 22 -36 38 -43 35 -29 -13 -118 -37 -121 -34 -7 7 44 108 55 108 6 0 3 11
-6 25 -18 28 -34 33 -34 10z"/>
<path d="M1550 1286 c0 -9 -26 -44 -58 -77 -55 -56 -57 -60 -40 -76 17 -15 19
-14 40 13 12 16 41 48 64 71 l42 41 -24 23 c-20 19 -24 20 -24 5z"/>
<path d="M1623 1216 c7 -18 -71 -126 -90 -126 -18 0 -16 -10 5 -26 20 -16 36
-18 27 -4 -8 12 53 102 64 95 5 -2 12 -43 16 -90 4 -47 10 -87 15 -90 5 -3 25
17 45 45 20 27 47 58 60 69 24 18 24 19 6 35 -18 16 -19 16 -25 -6 -7 -29 -52
-85 -61 -77 -3 4 -9 40 -12 80 -3 44 -12 81 -21 92 -18 21 -36 23 -29 3z"/>
<path d="M1816 1076 c7 -18 -47 -109 -77 -130 -18 -12 -15 -16 43 -54 46 -31
65 -38 75 -30 19 16 16 27 -7 21 -20 -5 -70 20 -70 36 0 5 8 19 18 31 19 23
52 19 52 -7 0 -13 3 -13 15 -3 22 18 19 24 -16 37 -30 12 -30 12 -13 37 9 14
22 26 29 26 17 0 45 -27 45 -43 0 -8 4 -7 12 1 15 15 2 28 -65 67 -35 20 -46
23 -41 11z"/>
<path d="M2030 945 c-11 -13 -8 -15 19 -15 20 0 34 -6 38 -16 8 -20 -52 -144
-69 -144 -16 -1 32 -29 50 -30 7 0 11 4 7 10 -6 10 54 140 66 140 19 0 39 -13
39 -26 0 -17 17 -18 23 -1 10 27 20 -7 29 -95 5 -51 11 -94 13 -96 2 -2 38 28
79 67 54 51 71 73 61 77 -9 4 -33 -14 -63 -47 l-49 -53 -6 56 c-4 31 -4 63 -1
71 4 10 -14 22 -63 41 -37 15 -88 38 -112 52 -52 28 -46 28 -61 9z"/>
<path d="M2409 761 c-67 -68 -16 -161 89 -161 47 0 80 31 89 83 5 32 1 41 -30
72 -29 29 -42 35 -77 35 -33 0 -48 -6 -71 -29z m116 -6 c29 -28 31 -51 11
-100 -16 -39 -52 -53 -85 -36 -57 31 -27 161 37 161 7 0 24 -11 37 -25z"/>
<path d="M5571 2272 c-14 -27 -14 -32 4 -32 25 0 95 -32 90 -40 -3 -5 -36 -18
-73 -31 -37 -12 -73 -26 -79 -32 -15 -11 -18 -41 -4 -32 14 8 112 -33 138 -57
22 -20 23 -20 29 -2 4 10 9 22 11 26 2 4 -5 6 -16 5 -21 -1 -101 32 -101 43 0
3 25 14 55 24 31 9 70 23 87 31 l32 13 -71 36 c-40 19 -76 43 -81 52 -9 16
-11 15 -21 -4z"/>
<path d="M5472 2058 c-5 -7 -19 -31 -30 -53 l-20 -40 71 -34 c42 -21 72 -42
75 -54 4 -15 12 -7 38 39 36 64 42 89 21 97 -10 4 -13 -2 -9 -18 9 -51 -32
-81 -71 -51 -19 15 -13 46 9 46 19 0 18 16 -2 24 -22 9 -22 8 -26 -16 -4 -28
-27 -34 -53 -14 -17 12 -18 17 -7 40 6 14 19 26 27 26 9 0 13 5 10 10 -8 14
-20 13 -33 -2z"/>
<path d="M5382 1903 c-8 -14 -2 -32 26 -82 l35 -64 -76 7 -76 7 -31 -46 c-17
-25 -26 -45 -21 -45 11 0 65 -99 58 -106 -6 -6 -96 23 -111 35 -10 9 -17 6
-30 -13 -21 -32 -21 -31 17 -33 17 -2 61 -12 96 -23 36 -10 67 -17 70 -15 2 3
-14 44 -37 92 -37 77 -40 89 -27 102 18 19 46 5 108 -51 39 -37 42 -38 55 -21
11 15 11 19 -4 22 -18 3 -94 50 -94 57 0 2 32 1 71 -2 l71 -7 -31 61 c-17 34
-29 62 -25 62 9 0 68 -43 80 -59 9 -12 13 -10 27 9 16 22 15 24 -21 43 -49 26
-94 57 -109 74 -9 12 -13 12 -21 -4z"/>
<path d="M5074 1509 c-16 -18 -16 -23 -4 -27 23 -8 110 -93 110 -108 0 -25 18
-15 60 36 33 40 39 53 31 67 -10 17 -10 16 -11 -3 0 -21 -28 -54 -46 -54 -16
0 -104 81 -104 96 0 20 -14 17 -36 -7z"/>
<path d="M4935 1375 c-28 -27 -31 -51 -10 -79 11 -15 22 -17 55 -12 40 6 80
-6 80 -24 0 -20 -32 -40 -56 -34 -26 7 -34 -10 -8 -20 24 -9 29 -8 58 19 56
52 22 105 -64 97 -48 -4 -50 -4 -50 21 0 27 20 40 48 30 15 -6 15 -5 3 10 -18
23 -27 21 -56 -8z"/>
<path d="M4863 1308 c-9 -10 -7 -27 8 -72 11 -32 18 -60 15 -63 -6 -7 -89 38
-101 54 -9 12 -20 7 -62 -27 l-52 -41 6 -69 c3 -39 3 -70 -1 -70 -4 0 -32 16
-62 35 -51 33 -57 34 -76 21 -17 -13 -19 -16 -6 -21 11 -5 38 -49 85 -143 1
-2 12 2 25 9 19 11 20 14 6 17 -14 3 -68 72 -68 88 0 3 25 -8 55 -25 30 -17
58 -31 63 -31 4 0 6 30 4 68 l-4 67 26 -37 c14 -20 26 -44 26 -52 0 -20 10
-20 39 0 19 14 21 18 9 25 -8 5 -32 33 -53 63 -64 94 -29 111 95 46 41 -22 75
-38 76 -37 1 1 -8 49 -20 106 -17 80 -24 100 -33 89z"/>
<path d="M4439 1020 c-19 -15 -20 -19 -8 -20 17 0 79 -105 79 -134 0 -20 10
-20 37 -1 l22 15 -23 25 c-13 14 -34 50 -47 80 -13 30 -27 55 -30 55 -4 0 -17
-9 -30 -20z"/>
<path d="M4303 950 l-43 -19 31 -49 c17 -27 36 -66 43 -85 l12 -36 53 30 c28
16 55 37 58 45 9 25 -14 64 -38 64 -16 0 -20 5 -16 20 6 23 -16 50 -41 50 -9
0 -36 -9 -59 -20z m62 -21 c5 -13 1 -27 -8 -36 -13 -14 -17 -12 -32 10 -9 15
-14 31 -10 37 11 18 43 11 50 -11z m43 -61 c18 -18 15 -55 -5 -62 -17 -7 -52
27 -53 51 0 21 40 29 58 11z"/>
<path d="M4200 902 c-59 -20 -103 -44 -93 -50 16 -10 74 -142 67 -153 -7 -13
-5 -12 62 15 45 19 60 29 63 48 3 23 3 23 -23 -4 -33 -37 -61 -36 -81 2 -16
30 -16 30 15 36 16 4 30 12 30 20 0 19 -17 26 -24 9 -9 -24 -42 -17 -55 12
-15 32 -1 45 42 40 17 -2 27 1 27 9 0 17 -11 23 -30 16z"/>
<path d="M3948 805 c-26 -9 -49 -19 -52 -23 -3 -5 6 -35 19 -68 14 -32 25 -69
25 -81 0 -27 4 -28 61 -8 63 23 99 60 99 105 0 70 -65 102 -152 75z m73 -16
c26 -14 47 -63 41 -95 -6 -32 -48 -61 -69 -48 -9 5 -26 38 -38 72 -21 57 -21
63 -6 72 21 13 48 12 72 -1z"/>
<path d="M3767 751 c-36 -10 -54 -20 -49 -26 10 -12 -6 -115 -18 -115 -13 0
-70 92 -64 102 5 7 -44 1 -54 -8 -3 -2 84 -120 113 -152 10 -11 17 7 34 83 22
93 39 121 61 99 5 -5 17 -41 27 -79 10 -39 18 -72 20 -74 1 -2 14 -1 28 3 23
6 24 8 11 29 -24 36 -45 134 -33 146 15 15 -5 13 -76 -8z"/>
</g>
</svg>
