<?xml version="1.0" standalone="no"?>
<!DOCTYPE svg PUBLIC "-//W3C//DTD SVG 20010904//EN"
 "http://www.w3.org/TR/2001/REC-SVG-20010904/DTD/svg10.dtd">
<svg version="1.0" xmlns="http://www.w3.org/2000/svg"
 width="1200.000000pt" height="1200.000000pt" viewBox="0 0 1200.000000 1200.000000"
 preserveAspectRatio="xMidYMid meet">

<g transform="translate(0.000000,1200.000000) scale(0.100000,-0.100000)"
fill="#000000" stroke="none">
<path d="M5825 11873 c-2331 -66 -4416 -1528 -5285 -3704 -417 -1042 -523
-2202 -304 -3314 302 -1537 1210 -2886 2529 -3760 1206 -798 2684 -1122 4125
-904 1424 216 2735 963 3651 2079 706 861 1152 1896 1288 2990 58 470 60 980
5 1440 -139 1159 -614 2232 -1390 3140 -126 148 -456 478 -604 604 -932 797
-2039 1277 -3232 1401 -148 15 -564 36 -648 33 -25 -1 -85 -3 -135 -5z m430
-273 c539 -29 990 -111 1470 -267 1451 -471 2655 -1522 3321 -2898 496 -1025
667 -2167 494 -3297 -159 -1029 -599 -1983 -1288 -2793 -110 -129 -468 -487
-597 -597 -624 -530 -1329 -912 -2095 -1133 -1499 -432 -3117 -222 -4445 578
-397 239 -730 501 -1071 841 -306 306 -510 555 -737 901 -892 1361 -1145 3051
-692 4625 216 751 578 1427 1097 2052 131 158 518 545 673 674 989 821 2134
1263 3415 1317 159 7 278 6 455 -3z"/>
<path d="M5670 11230 c-1532 -110 -2824 -799 -3560 -1900 -275 -412 -462 -852
-604 -1425 -138 -554 -148 -1031 -31 -1382 43 -127 119 -259 252 -438 68 -93
136 -191 149 -217 144 -284 -14 -599 -309 -616 -99 -6 -173 10 -261 56 -172
90 -311 300 -382 581 -73 288 -73 744 2 1186 26 154 79 389 114 503 25 79 25
82 0 82 -22 0 -48 -72 -105 -295 -105 -408 -162 -823 -172 -1255 -20 -875 164
-1713 539 -2452 414 -817 1028 -1432 1813 -1818 288 -142 502 -221 863 -319
387 -106 674 -146 992 -138 215 5 317 20 468 68 162 52 292 127 472 273 209
170 274 200 430 201 97 0 110 -2 171 -31 166 -79 247 -218 236 -407 -7 -124
-51 -213 -156 -317 -111 -109 -240 -178 -433 -234 -164 -47 -249 -58 -508 -63
-414 -9 -791 40 -1184 153 -92 27 -121 32 -127 22 -14 -23 13 -38 150 -82 438
-141 1040 -216 1621 -203 290 7 423 17 667 52 1618 232 2876 1130 3450 2460
142 329 295 860 344 1190 42 287 42 615 0 821 -51 250 -120 387 -336 667 -134
174 -172 274 -162 421 7 111 36 183 103 255 73 80 148 113 266 119 68 3 101 0
155 -16 266 -81 458 -395 518 -847 19 -144 19 -459 0 -656 -25 -256 -73 -518
-140 -763 -19 -71 -32 -132 -29 -137 24 -39 60 47 124 297 256 992 218 2080
-107 3054 -172 518 -432 1000 -759 1410 -127 158 -414 450 -565 573 -503 409
-1066 675 -1795 846 -288 68 -485 92 -754 92 -453 0 -667 -73 -1024 -350 -191
-148 -290 -188 -442 -178 -150 9 -275 91 -339 221 -40 82 -47 204 -17 303 84
276 406 468 877 524 144 17 570 6 761 -20 235 -32 478 -86 655 -146 87 -30 99
-31 99 -6 0 17 -20 26 -112 56 -294 95 -657 169 -1028 210 -172 19 -669 28
-850 15z m-349 -2079 c132 -42 229 -125 288 -250 101 -213 48 -583 -136 -944
-184 -363 -496 -715 -833 -941 -89 -60 -311 -176 -336 -176 -26 0 -26 -28 1
-82 92 -184 268 -215 515 -92 163 82 401 282 415 350 15 73 81 266 115 341 87
187 236 369 349 425 150 76 281 56 339 -50 91 -165 -36 -449 -368 -822 l-67
-75 -21 -130 c-12 -71 -23 -156 -27 -187 -3 -32 -8 -83 -11 -113 l-6 -56 219
132 c402 243 691 429 1006 650 72 50 77 56 72 83 -31 173 -31 463 0 646 95
571 410 1054 808 1240 111 52 182 69 307 76 192 11 335 -39 450 -155 77 -78
113 -142 140 -247 24 -93 26 -200 5 -320 -69 -395 -366 -780 -974 -1263 l-151
-119 36 -71 c38 -77 115 -167 170 -201 32 -21 36 -21 81 -6 228 74 518 68 698
-14 114 -51 165 -116 165 -211 0 -133 -104 -217 -309 -250 -93 -15 -355 -12
-490 5 -115 14 -115 14 -185 -11 -189 -68 -364 -181 -516 -333 -265 -263 -406
-596 -441 -1033 -42 -528 155 -1028 510 -1298 86 -65 244 -142 351 -171 74
-20 108 -23 255 -22 155 0 178 3 258 27 331 102 573 351 671 691 53 182 57
389 10 576 -27 111 -105 259 -171 326 -195 197 -501 205 -673 17 -70 -77 -93
-143 -88 -259 3 -78 8 -100 36 -155 17 -35 63 -101 102 -147 92 -109 113 -151
114 -227 2 -195 -210 -273 -444 -163 -135 64 -266 234 -318 413 -130 443 71
874 501 1075 269 126 614 127 881 2 274 -129 468 -362 577 -694 71 -218 94
-531 55 -738 -87 -450 -383 -852 -794 -1077 -145 -80 -347 -147 -527 -174
-113 -17 -369 -14 -497 5 -637 97 -1125 531 -1332 1185 -100 315 -119 660 -56
1009 105 584 447 1061 997 1387 l113 68 -43 46 c-23 25 -58 67 -76 94 -19 28
-37 45 -44 40 -6 -3 -72 -49 -146 -101 -375 -262 -785 -520 -1231 -774 l-95
-54 -7 -55 c-4 -29 -14 -146 -23 -259 -39 -500 -102 -891 -186 -1150 -229
-702 -651 -1203 -1165 -1381 -282 -98 -611 -97 -846 1 -251 104 -420 300 -504
585 -36 124 -45 347 -19 480 63 320 246 647 511 910 164 162 463 387 734 552
162 98 430 247 745 412 149 78 274 146 279 151 10 10 57 282 51 289 -2 2 -18
-8 -35 -23 -85 -71 -263 -146 -407 -171 -111 -19 -272 -19 -348 0 -136 35
-278 128 -375 248 -58 71 -131 209 -150 284 l-13 50 -80 12 c-350 49 -623 301
-707 653 -81 338 28 768 223 883 94 54 192 52 241 -5 41 -49 41 -96 1 -270
-63 -272 -58 -458 16 -609 55 -111 140 -179 247 -196 l42 -7 0 52 c0 161 50
429 120 640 122 372 293 662 530 901 194 195 351 289 560 334 92 20 275 13
361 -14z"/>
<path d="M4940 8713 c-158 -80 -380 -392 -524 -736 -96 -228 -171 -514 -164
-627 l3 -51 65 42 c331 214 726 705 847 1054 34 98 41 218 15 265 -29 53 -64
73 -129 77 -48 3 -68 -2 -113 -24z"/>
<path d="M7894 8726 c-128 -40 -289 -226 -400 -460 -90 -191 -150 -420 -169
-645 l-7 -84 59 50 c97 84 343 342 430 450 111 139 176 237 229 346 86 179 79
288 -19 336 -49 24 -66 25 -123 7z"/>
<path d="M4860 5499 c-462 -243 -813 -491 -1100 -778 -209 -209 -333 -386
-400 -569 -124 -339 -46 -616 194 -687 109 -33 303 -12 445 48 483 200 816
860 980 1941 9 64 17 116 17 116 -1 0 -62 -32 -136 -71z"/>
</g>
</svg>
